<svg width="101" height="64" viewBox="0 0 101 64" fill="none" xmlns="http://www.w3.org/2000/svg">
<g clip-path="url(#clip0_4320_16)">
<path d="M94.1097 8.29787C94.1097 8.37115 94.1097 8.46277 94.091 8.51774C93.9973 9.23232 93.9973 9.94691 94.0534 10.6798C94.091 10.8631 94.1284 11.0463 94.2784 11.1929C94.522 11.4677 94.8967 11.4127 95.0467 11.0829C95.1217 10.918 95.1217 10.7531 95.0841 10.5882C94.8967 9.89194 94.8593 9.15904 94.8406 8.44444C94.8406 8.4078 94.8406 8.35283 94.8406 8.29787C95.0467 8.27954 95.2341 8.26121 95.4027 8.26121C95.534 8.2429 95.6464 8.22457 95.7401 8.1696C96.0211 8.02302 96.0211 7.71154 95.7213 7.56495C95.6089 7.50998 95.459 7.49165 95.3279 7.49165C94.8593 7.50998 94.3908 7.50998 93.9223 7.50998C93.7537 7.50998 93.585 7.52831 93.4163 7.54662C93.3226 7.56495 93.2101 7.56495 93.1353 7.61992C93.004 7.67488 92.9291 7.7665 92.9291 7.89475C92.9479 8.02302 93.004 8.09631 93.1353 8.15128C93.2101 8.20625 93.3038 8.22457 93.3976 8.22457C93.6224 8.2429 93.8661 8.27954 94.1097 8.29787ZM99.2631 9.14071C99.2631 9.15904 99.2819 9.17735 99.2819 9.17735C99.3569 9.67207 99.4319 10.1485 99.488 10.6249C99.5069 10.7898 99.5256 10.9363 99.638 11.0646C99.8816 11.3761 100.256 11.3394 100.425 11.0096C100.5 10.8447 100.519 10.6798 100.481 10.4966C100.369 9.94691 100.313 9.39722 100.2 8.86587C100.125 8.53605 100.032 8.22457 99.9378 7.93141C99.8816 7.74818 99.7504 7.61991 99.5256 7.6016C99.3007 7.56495 99.132 7.67488 99.0383 7.8398C98.9258 7.98637 98.8321 8.13295 98.7571 8.29787C98.626 8.59103 98.5136 8.8842 98.3637 9.15904C98.3449 9.23232 98.3261 9.2873 98.2887 9.34225C98.27 9.30561 98.2513 9.2873 98.2513 9.2873C98.0076 8.82922 97.7827 8.37115 97.5391 7.93141C97.5016 7.89475 97.4829 7.85811 97.4641 7.82147C97.3517 7.65657 97.2206 7.56495 97.0144 7.56495C96.827 7.58327 96.677 7.69321 96.5834 7.85811C96.5459 7.93141 96.5459 7.98637 96.5271 8.05967C96.4521 8.646 96.3584 9.23232 96.2836 9.81865C96.246 10.1485 96.2273 10.4783 96.2273 10.8081C96.2086 10.8814 96.2273 10.973 96.2647 11.0463C96.3023 11.1929 96.4147 11.2845 96.5646 11.3028C96.752 11.3211 96.8831 11.2662 96.9394 11.1196C96.9956 11.0096 97.0144 10.918 97.0331 10.8264C97.1081 10.4966 97.1643 10.1851 97.2206 9.87362C97.258 9.6904 97.2767 9.54381 97.333 9.34225C97.3704 9.41555 97.4079 9.47052 97.4454 9.52548C97.614 9.74537 97.7827 9.96524 97.9889 10.1485C98.195 10.295 98.3637 10.2767 98.5323 10.1118C98.5698 10.0752 98.5886 10.0569 98.626 10.0202C98.7947 9.76368 99.0009 9.50717 99.1694 9.25064C99.207 9.214 99.2257 9.17735 99.2631 9.14071Z" fill="#3A3B7B"/>
<path d="M56.0839 8.65784C55.9536 9.00605 55.9287 9.25692 55.9889 9.46544C56.0553 9.74898 56.2277 9.84181 56.4617 9.7697C58.6629 9.23751 63.4896 10.7481 65.2766 11.1691C65.698 11.2575 66.0409 10.7256 65.7533 10.2487C65.3336 9.7868 60.509 7.80941 58.6681 7.7016C57.9466 7.66172 56.6566 7.48081 56.0839 8.65784Z" fill="#3A3B7B"/>
<path d="M74.9476 2.25686C75.1821 2.38925 75.3133 2.51554 75.378 2.65664C75.4744 2.84172 75.4236 2.96978 75.2616 3.03512C73.8066 3.72944 71.8704 6.71859 71.0889 7.74952C70.8994 7.98668 70.4624 7.84886 70.3964 7.45886C70.41 7.01789 72.1263 3.77399 73.0841 2.89046C73.4606 2.54551 74.0824 1.86866 74.9476 2.25686Z" fill="#3A3B7B"/>
<path d="M63.3604 0.785405C63.6423 0.577724 63.9351 0.504946 64.0847 0.639913C66.28 2.47555 67.4442 5.38245 68.165 8.04365C68.1922 8.10565 68.1939 8.19462 68.1721 8.28744C68.1631 8.36677 68.1039 8.45057 68.0097 8.51541C67.9092 8.587 67.8226 8.6088 67.7819 8.54711C66.8197 7.26758 61.3244 2.28915 63.3604 0.785405Z" fill="#3A3B7B"/>
<path d="M16.8729 32.6108C17.399 32.2278 17.971 31.909 18.5763 31.6616C19.2096 31.4846 19.8846 31.5138 20.4993 31.7453C21.1139 31.9767 21.6349 32.3974 21.9831 32.944C22.2947 33.4891 22.4166 34.1186 22.3306 34.7374C22.2446 35.3561 21.9553 35.9308 21.5061 36.375C21.158 36.735 20.7627 37.0486 20.3309 37.3077C18.406 38.5236 16.464 39.6727 14.5221 40.8886C14.1247 41.1928 13.7032 41.4658 13.2615 41.7047C12.5897 42.0323 11.822 42.12 11.091 41.9527C10.36 41.7856 9.7118 41.3737 9.25846 40.7887C8.91956 40.3744 8.63354 39.9214 8.40673 39.4396C6.56701 35.6588 4.65917 31.8947 2.88759 28.0473C2.06993 26.3818 1.40559 24.4664 0.758283 22.6177C0.478228 22.0806 0.423539 21.4578 0.605862 20.8818C0.788186 20.3058 1.19314 19.8221 1.73457 19.5336C2.27601 19.245 2.91121 19.1744 3.5051 19.3367C4.09899 19.499 4.6047 19.8814 4.91467 20.4026C5.86746 21.6406 6.71087 22.9556 7.43577 24.3333C9.27549 27.6643 11.03 30.9953 12.8016 34.2264C12.9048 34.405 13.0185 34.5773 13.1423 34.7427C14.4757 34.1946 15.7299 33.4778 16.8729 32.6108Z" fill="#3A3B7B"/>
<path d="M35.8944 31.4488C31.687 36.2621 24.6347 35.0463 21.0916 28.8505C18.5704 24.4535 18.1276 17.1918 23.6127 12.6116C24.784 11.6527 26.1846 10.9995 27.6838 10.7129C29.5221 10.4553 31.3967 10.7723 33.0396 11.6189C34.6824 12.4654 36.0096 13.7981 36.8314 15.4264C39.8294 20.7561 39.4036 27.5514 35.8944 31.4488ZM34.191 20.2231C33.744 18.9134 32.8473 17.7953 31.6528 17.0585C30.977 16.5875 30.1557 16.3585 29.3274 16.4101C28.499 16.4617 27.7141 16.7907 27.1047 17.3417C24.6688 19.457 24.1577 24.4703 25.9293 27.4515C26.1551 27.9377 26.4867 28.3697 26.9011 28.7174C27.3156 29.0651 27.8027 29.3201 28.3284 29.4644C28.8541 29.6088 29.4057 29.6391 29.9447 29.5533C30.4837 29.4673 30.9968 29.2673 31.4486 28.9671C32.769 27.9661 33.7377 26.5878 34.22 25.0238C34.7024 23.4597 34.6744 21.7875 34.14 20.2398L34.191 20.2231Z" fill="#3A3B7B"/>
<path d="M53.065 22.3217C52.6343 22.4123 52.1893 22.4177 51.7563 22.3376C51.3234 22.2574 50.9111 22.0936 50.544 21.8554C50.2227 21.6757 49.9461 21.4287 49.7341 21.132C49.5223 20.8353 49.3803 20.4964 49.3184 20.1396C49.2564 19.7828 49.2763 19.4171 49.3761 19.0687C49.4761 18.7203 49.654 18.3978 49.8967 18.1246C50.3196 17.5754 50.9199 17.1823 51.6001 17.0087C53.3763 16.5047 55.2047 16.1974 57.0511 16.0927C57.4569 16.0466 57.8679 16.0801 58.26 16.1914C58.6523 16.3028 59.0177 16.4896 59.3351 16.741C59.6524 16.9923 59.9153 17.3031 60.1081 17.6551C60.3009 18.0071 60.4199 18.3933 60.458 18.7908C60.9903 20.7437 61.0486 22.7913 60.6283 24.7701C59.0953 31.1657 53.8146 33.3641 47.8866 31.3156C46.2226 30.7678 44.7636 29.7473 43.6961 28.3843C42.2724 26.7428 41.263 24.7976 40.7491 22.7048C40.3329 20.8413 40.3784 18.9076 40.8823 17.0648C41.386 15.2221 42.3333 13.5239 43.645 12.1121C44.8899 10.5775 46.5056 9.36985 48.3466 8.59778C49.5099 7.97085 50.8711 7.7926 52.1623 8.09813C52.4551 8.17738 52.721 8.33181 52.9323 8.5454C53.1436 8.759 53.2926 9.02395 53.3639 9.31282C53.4351 9.60168 53.426 9.90393 53.3376 10.1882C53.249 10.4725 53.0844 10.7284 52.8607 10.9295C52.4353 11.306 51.9731 11.6407 51.4809 11.9288C49.9664 12.8718 48.6486 14.0869 47.597 15.5097C46.9077 16.4304 46.433 17.4877 46.2064 18.607C45.9797 19.7263 46.0067 20.8806 46.2854 21.9887C46.6717 23.4996 47.529 24.8557 48.7383 25.8693C52.4859 29.2004 57.3577 25.9858 56.506 21.439C55.2626 21.7388 54.1723 22.0553 53.065 22.3217Z" fill="#3A3B7B"/>
<path d="M75.9596 31.7153C70.4234 35.0464 64.1207 31.7153 62.7409 24.7201C61.7359 19.7236 63.6437 12.7283 70.3213 10.0635C71.742 9.50867 73.283 9.31388 74.8013 9.49717C76.6254 9.82367 78.2989 10.7017 79.5854 12.0075C80.872 13.3133 81.7071 14.981 81.9727 16.7756C83.097 22.7214 80.5419 29.0671 75.9596 31.7153ZM77.8846 20.5063C77.8829 19.1227 77.3823 17.7838 76.4707 16.7256C75.9834 16.071 75.279 15.602 74.4776 15.3984C73.676 15.195 72.8273 15.2696 72.0757 15.6097C69.0777 16.8754 66.9654 21.4723 67.732 24.8534C67.7906 25.384 67.9669 25.8957 68.2487 26.3527C68.5306 26.8097 68.9111 27.201 69.3639 27.4993C69.8164 27.7974 70.3303 27.9954 70.8693 28.0793C71.4084 28.163 71.9597 28.1307 72.4846 27.9846C74.0693 27.4433 75.4414 26.4317 76.4094 25.091C77.3776 23.7503 77.8933 22.1474 77.8846 20.5063Z" fill="#3A3B7B"/>
<path d="M87.5713 33.1144C87.4877 33.724 87.16 34.2761 86.66 34.6494C86.16 35.0226 85.5289 35.1864 84.9054 35.1047C84.282 35.023 83.7173 34.7024 83.3356 34.2136C82.9537 33.7248 82.7863 33.1077 82.8699 32.4981C82.9534 31.8885 83.2813 31.3364 83.7811 30.9631C84.2811 30.5898 84.9123 30.4261 85.5357 30.5078C86.1591 30.5896 86.7239 30.91 87.1057 31.3988C87.4874 31.8877 87.655 32.5048 87.5713 33.1144ZM86.0893 10.6464C86.4133 10.1626 86.8886 9.79416 87.4443 9.59606C87.9999 9.39796 88.6061 9.38079 89.1726 9.54712C89.7484 9.68799 90.2571 10.018 90.6139 10.4819C90.9704 10.9458 91.1531 11.5154 91.1316 12.0954C91.0564 13.0256 90.9141 13.9495 90.7057 14.8601C90.1436 17.9414 89.5984 21.0226 89.0023 24.0706C88.7297 25.2864 88.372 26.4523 87.9801 27.6847C87.8439 28.07 87.6161 28.4181 87.3159 28.7007C87.1291 28.9133 86.8907 29.0763 86.6224 29.1747C86.3541 29.2733 86.0649 29.304 85.7813 29.2641C85.4977 29.2243 85.2289 29.1151 84.9999 28.9468C84.7709 28.7784 84.589 28.5563 84.4711 28.301C84.2686 27.843 84.1586 27.3508 84.1474 26.852C84.1474 24.7867 84.1474 22.7048 84.2837 20.6228C84.5153 17.6517 84.9707 14.7012 85.6464 11.7956C85.726 11.4063 85.8759 11.034 86.0893 10.6963V10.6464Z" fill="#3A3B7B"/>
<path fill-rule="evenodd" clip-rule="evenodd" d="M9.67588 46.4983C9.47475 46.9373 9.41959 47.4267 9.51788 47.8977C9.58326 48.5186 9.72688 49.1293 9.94545 49.7159C10.2183 50.4341 10.5237 51.1444 10.9002 52.0199C10.9868 52.2213 11.0773 52.4316 11.172 52.6529C11.6797 53.8389 12.3168 55.3546 13.1666 57.5481C13.4071 58.1713 13.6207 58.7996 13.8358 59.4321C13.9227 59.6877 14.0099 59.9441 14.0991 60.2011C14.4191 61.1149 14.9696 61.9357 15.6993 62.5863C16.0091 62.9439 16.4201 63.2044 16.881 63.3347C17.3509 63.4676 17.8506 63.4591 18.3154 63.3106C18.7803 63.1619 19.1886 62.8799 19.4873 62.5011C19.7801 62.1299 19.9543 61.6824 19.9881 61.215C20.1781 60.3044 20.1133 59.3603 19.8002 58.4824C19.3032 57.0249 18.737 55.5651 18.0841 54.1374L18.0812 54.1311C17.0071 51.8974 15.9154 49.6791 14.7721 47.46L14.7635 47.4444C14.4288 46.8663 13.9938 46.3494 13.4781 45.9171C13.1433 45.5313 12.6815 45.271 12.1715 45.1813C11.6506 45.0897 11.1134 45.182 10.6558 45.4419C10.2229 45.6836 9.87969 46.0534 9.67588 46.4983Z" fill="#3A3B7B"/>
<path fill-rule="evenodd" clip-rule="evenodd" d="M26.0796 40.998C24.3956 40.5715 22.6369 40.5094 20.926 40.816C19.6009 40.9435 18.2976 41.2424 17.3926 41.8344C16.9323 42.1357 16.5601 42.5225 16.3531 43.0143C16.145 43.5087 16.1184 44.0741 16.289 44.7041C16.6004 45.8581 17.0049 46.9801 17.4079 48.0986L17.4731 48.2797L17.4747 48.2837C18.6881 51.5328 19.9131 54.771 21.1493 57.998C21.2934 58.5066 21.4973 58.9971 21.7567 59.4598L21.7616 59.4684C22.1043 60.0433 22.5439 60.5574 23.0617 60.9893C23.3207 61.2267 23.641 61.391 23.9883 61.4644C24.339 61.5384 24.7037 61.517 25.0427 61.4021C25.3819 61.2874 25.6821 61.0838 25.911 60.8135C26.1361 60.5477 26.2836 60.2274 26.3377 59.8865C26.5611 58.9605 26.4896 57.9898 26.1324 57.1047C26.021 56.8068 25.9336 56.5024 25.8414 56.182C25.8107 56.0751 25.7796 55.9664 25.7467 55.8557C28.5763 54.7743 31.587 53.3201 32.6457 49.9373C33.0603 48.7683 33.0949 47.5024 32.7446 46.3133C32.394 45.1228 31.6747 44.0677 30.6859 43.2931C29.34 42.2088 27.7679 41.4254 26.0796 40.998ZM21.4117 45.1473C21.4674 45.1315 21.5236 45.117 21.5799 45.1034C23.422 44.8203 25.3067 45.1975 26.887 46.1655C27.5834 46.6391 27.8687 47.1653 27.9177 47.6716C27.9683 48.1928 27.7744 48.7577 27.385 49.3007C26.6491 50.3264 25.3063 51.1474 24.0933 51.3004C23.209 49.3093 22.311 47.2375 21.4117 45.1473Z" fill="#3A3B7B"/>
<path d="M37.3066 37.3533C39.312 36.4477 41.7962 36.2913 43.74 36.928C44.2296 37.0674 44.6543 37.369 44.9416 37.7811C45.227 38.1907 45.3587 38.6843 45.3147 39.1777C45.3119 39.498 45.2314 39.8131 45.0802 40.0974C44.9262 40.3868 44.7032 40.6357 44.43 40.8231C44.1569 41.0104 43.8416 41.1308 43.5109 41.1738C43.18 41.217 42.8436 41.1816 42.5297 41.0706L42.5059 41.0621L42.4834 41.0506C42.3229 40.9684 42.1523 40.9066 41.9759 40.8663L41.9647 40.8638C40.5973 40.5087 39.3074 41.0971 38.8363 41.8201C38.6116 42.1648 38.5837 42.5128 38.7709 42.8294C38.9713 43.1684 39.4629 43.5488 40.4576 43.82C40.7312 43.8934 41.0116 43.9643 41.296 44.0363C42.0826 44.2354 42.9 44.4423 43.6904 44.729L43.6934 44.7301C47.34 46.0867 48.6979 48.8963 48.233 51.5388C47.7732 54.1521 45.541 56.5304 42.1843 57.0914C40.9629 57.3561 39.6917 57.3046 38.4967 56.9418C37.2987 56.578 36.2189 55.9141 35.3644 55.0158L35.3422 54.9924C35.0724 54.654 34.891 54.2564 34.8106 53.8346C34.7366 53.4538 34.7756 53.0604 34.9227 52.7006C35.069 52.3428 35.3164 52.0333 35.6357 51.8077C35.973 51.552 36.3796 51.3986 36.8052 51.3666C37.2293 51.3347 37.6537 51.4248 38.0262 51.6257C38.3981 51.8014 38.7442 52.0255 39.0547 52.2921L39.0606 52.297C39.61 52.7883 40.2747 52.9163 40.9122 52.7977C41.5589 52.6774 42.167 52.3033 42.5582 51.8068C42.9467 51.3136 43.1027 50.7276 42.9176 50.1587C42.7313 49.5857 42.1712 48.9437 40.9404 48.407C40.6187 48.2734 40.2852 48.1657 39.9382 48.0608C39.8446 48.0326 39.7494 48.0044 39.6532 47.9758C39.3966 47.8997 39.1326 47.8213 38.8737 47.7348C38.6954 47.6754 38.5186 47.6191 38.3434 47.5633C37.8647 47.4108 37.398 47.2623 36.9489 47.063C35.9713 46.7376 35.1267 46.1127 34.5409 45.2808C33.9526 44.4457 33.6566 43.447 33.6969 42.4338C33.7 39.9648 35.2904 38.2638 37.3066 37.3533Z" fill="#3A3B7B"/>
<path d="M62.7313 37.0903C62.3424 36.9046 61.9124 36.8164 61.4801 36.8337C61.0477 36.8511 60.6266 36.9734 60.2547 37.1898C59.8851 37.4047 59.5757 37.7056 59.354 38.0657C59.1507 38.369 59.01 38.7081 58.9399 39.0643C58.8697 39.4201 58.8714 39.7858 58.9447 40.1408C59.0171 40.5971 59.0974 41.0408 59.1767 41.4784C59.308 42.2026 59.4357 42.9104 59.52 43.6321L59.5231 43.6504C59.715 44.7823 59.8154 45.927 59.8244 47.0741L59.8253 47.0904C59.8909 48.3293 59.4591 49.544 58.6227 50.4768L58.6094 50.4934C58.3373 50.8344 57.9734 51.0947 57.5584 51.2451C57.1436 51.3956 56.6941 51.4301 56.2603 51.345C55.8264 51.2598 55.4254 51.0584 55.102 50.7631C54.7786 50.4678 54.5453 50.0893 54.4289 49.672C54.1803 48.7924 54.0364 47.8877 53.9999 46.976L54.4244 40.367C54.4307 40.2807 54.4379 40.1921 54.4451 40.1027C54.4613 39.902 54.4779 39.6976 54.4847 39.5068C54.4947 39.2263 54.4861 38.9377 54.4193 38.6646C54.3509 38.3854 54.2207 38.1198 53.9899 37.8937C53.7613 37.6698 53.4527 37.5047 53.0644 37.3923C52.3623 37.1936 51.7686 37.1998 51.2739 37.4051C50.7789 37.6104 50.4397 37.9916 50.1997 38.4318C49.9616 38.8684 49.8086 39.3853 49.6929 39.903C49.607 40.2871 49.538 40.6904 49.4724 41.0743C49.4497 41.2066 49.4276 41.3364 49.4051 41.4626L49.4046 41.4663C49.0537 43.5714 48.9493 45.7088 49.0933 47.8371C49.1201 48.9873 49.3654 50.1226 49.8169 51.185C50.3261 52.5558 51.2486 53.7436 52.4624 54.5914C53.6789 55.441 55.1304 55.9091 56.625 55.9338C58.1196 55.9586 59.5866 55.5387 60.8317 54.73C62.0749 53.9224 63.0383 52.765 63.5946 51.4108C64.3727 49.6858 64.7381 47.8098 64.6627 45.9258C64.617 44.5504 64.5404 43.1644 64.4643 41.7854C64.4269 41.109 64.3896 40.434 64.3561 39.7631C64.3393 39.0904 64.1124 38.4388 63.7059 37.8958C63.4543 37.5526 63.1194 37.2757 62.7313 37.0903Z" fill="#3A3B7B"/>
<path d="M76.4944 47.4533C76.455 47.5023 76.4134 47.553 76.37 47.6057C76.0537 45.8217 75.7606 44.0383 75.467 42.2521C75.3617 41.6113 75.2559 40.9677 75.1494 40.326L75.1374 40.2544L75.0986 40.1926C75.0253 40.0761 75.018 39.962 75.018 39.7186V39.6904L75.0136 39.6626C74.9341 39.1599 74.7016 38.692 74.3463 38.3203C73.992 37.9496 73.5319 37.6916 73.0257 37.5796C72.5204 37.4577 71.9894 37.4846 71.4996 37.6569C71.011 37.8287 70.5852 38.1376 70.2752 38.5447C70.0174 38.8571 69.8061 39.2037 69.6479 39.574C69.2886 40.3717 68.9262 41.1714 68.5627 41.9733L68.5564 41.9871C67.6491 43.989 66.7357 46.0043 65.8489 48.0354L65.8461 48.042C65.3017 49.359 64.8523 50.7467 64.4044 52.1301C64.315 52.4063 64.2256 52.6823 64.1354 52.9576C63.9737 53.3941 63.903 53.8579 63.9273 54.3214C63.8979 54.7364 63.9994 55.1504 64.2186 55.5074C64.442 55.8717 64.7767 56.1583 65.1754 56.327C65.598 56.5081 66.0704 56.5466 66.518 56.4363C66.9646 56.3261 67.3612 56.0741 67.6453 55.7199C68.0082 55.2834 68.3203 54.8074 68.5749 54.3031C69.3262 52.8006 70.0441 51.2797 70.7589 49.7654C71.0354 49.1797 71.3042 48.6551 71.6099 48.0839C71.6309 48.1543 71.6523 48.223 71.6744 48.2919C71.9949 49.6711 72.5357 50.9923 73.277 52.2069C73.4173 52.4641 73.6127 52.689 73.8499 52.866C74.0899 53.0451 74.3669 53.1709 74.6616 53.2347C74.9563 53.2986 75.2617 53.2989 75.5566 53.2356C75.851 53.1724 76.1289 53.0466 76.369 52.8683L76.8443 52.5204L80.5333 49.4823L80.3152 50.8416C80.0157 52.71 79.7186 54.5629 79.4029 56.4161C79.1963 57.2376 79.1966 58.0956 79.4037 58.9167C79.4934 59.3789 79.722 59.8043 80.0603 60.1389C80.4014 60.4761 80.8383 60.7053 81.3143 60.7967C81.7903 60.888 82.2834 60.8374 82.7296 60.6513C83.1693 60.468 83.5433 60.1614 83.8047 59.7707C84.413 59.0329 84.7916 58.1396 84.8956 57.1971C85.0521 55.8663 85.229 54.5173 85.406 53.1687C85.6099 51.6143 85.8137 50.0603 85.9859 48.5361L85.9864 48.5314C86.1521 46.863 86.2323 45.1877 86.2267 43.5114C86.263 42.9817 86.1281 42.454 85.8407 42.003C85.5523 41.5504 85.1252 41.1986 84.6203 40.9973C84.0951 40.7639 83.5073 40.7014 82.9431 40.8194C82.3827 40.9366 81.8754 41.2254 81.4949 41.6439C80.8144 42.2591 80.1761 42.9176 79.584 43.6149L79.58 43.6196C78.9336 44.4071 78.2916 45.2101 77.6537 46.008C77.2659 46.493 76.8791 46.9769 76.4944 47.4533Z" fill="#3A3B7B"/>
</g>
<defs>
<clipPath id="clip0_4320_16">
<rect width="100" height="62.8571" fill="white" transform="translate(0.5 0.571411)"/>
</clipPath>
</defs>
</svg>
